<svg width="800" height="600" xmlns="http://www.w3.org/2000/svg">
 <!-- Created with Method Draw - http://github.com/duopixel/Method-Draw/ -->
 <g>
  <title>background</title>
  <rect fill="#fff" id="canvas_background" height="602" width="802" y="-1" x="-1"/>
  <g display="none" overflow="visible" y="0" x="0" height="100%" width="100%" id="canvasGrid">
   <rect fill="url(#gridpattern)" stroke-width="0" y="0" x="0" height="100%" width="100%"/>
  </g>
 </g>
 <g>
  <title>Layer 1</title>
  <path d="m174,203.45313c-1,0 -2.41885,0.58115 -4,-1c-1.58115,-1.58115 -2,-3 -3,-4c-1,-1 -1.61064,-2.15927 -3,-5c-1.58411,-3.23892 -2.71413,-5.21167 -5,-8c-0.89659,-1.09367 -1.71022,-5.04291 -2,-6c-1.04483,-3.45085 -2,-5 -2,-7c0,-1 -1,-4 -1,-5c0,-2 0,-4 0,-5c0,-3 0,-6 1,-10c1,-4 2,-7 4,-11c1,-2 2.33749,-4.31001 4,-7c0.7435,-1.203 0.69255,-2.186 2,-4c0.8269,-1.14726 2.47427,-2.14935 3,-3c1.17557,-1.90211 3.02675,-0.77025 4,-1c2.17625,-0.51374 5.87856,-2.49346 9,-3c4.93544,-0.80091 11,-1 17,-1c4,0 7,0 9,0c2,0 5.0535,-0.4595 7,0c2.17625,0.51374 3.90633,2.1034 5,3c2.78833,2.28588 4.2068,3.81265 6,6c2.28587,2.78833 3.69255,4.186 5,6c0.8269,1.14726 1.78986,4.07843 3,7c0.85571,2.06586 2,4 2,7c0,2 1.48625,2.82375 2,5c0.22975,0.97325 0,4 0,5c0,1 0,4 0,5c0,1 1,3 1,4c0,2 0,3 0,4c0,1 0.69344,0.5412 2,0c0.92387,-0.38269 1,-1 2,-1c1,0 2.07613,-0.61731 3,-1c1.30656,-0.5412 2.58578,-0.58578 4,-2c0.70711,-0.70711 1.69344,-1.4588 3,-2c1.84776,-0.76537 2.69344,-1.4588 4,-2c2.77164,-1.14806 4.03873,0.48055 7,0c3.12143,-0.50655 4,-2 6,-2c3,0 5,-1 7,-1c3,0 4,-1 6,-1c3,0 5,0 7,0c3,0 5,0 9,0c1,0 4,0 6,0c1,0 5,0 8,0c5,0 9,0 10,0c3,0 5,0 8,0c2,0 5,0 8,0c5,0 7,0 12,0c1,0 5,0 8,0c4,0 8,1 9,1c1,0 3,1 4,1c2,0 2.38687,0.9176 5,2c0.92389,0.38269 2.08582,0.42043 4,1c3.45084,1.04483 5.69345,2.4588 7,3c1.84775,0.76537 3,0 3,-1c0,-1 0,-2 0,-3c0,-1 0,-3 0,-4c0,-2 0,-3 0,-5c0,-2 0,-3 0,-6c0,-1 0,-2 0,-5c0,-1 0,-2 0,-3c0,-1 0,-2 0,-3c0,-1 0,-2 0,-3c0,-1 0,-2 1,-3c1,-1 0.77023,-2.02675 1,-3c0.51373,-2.17625 2.61731,-5.07612 3,-6c0.5412,-1.30656 1,-2 3,-4c1,-1 1.07611,-1.61732 2,-2c1.30655,-0.5412 1.29291,-1.29289 2,-2c0.70709,-0.70711 2.82376,-1.48626 5,-2c0.97324,-0.22975 3,-1 5,-1c2,0 3.54916,-0.95517 7,-2c1.91418,-0.57957 3,0 7,0c4,0 7,0 10,0c1,0 4.10699,0.08099 8,1c2.17624,0.51374 6.186,2.69255 8,4c1.14728,0.8269 3.1731,0.85273 4,2c1.30746,1.814 2.48627,1.82375 3,4c0.22977,0.97325 1,2 1,3c0,2 0.77023,4.02675 1,5c0.51373,2.17625 2,4 2,6c0,1 0,2 0,3c0,1 0,2 0,3c0,1 0,2 0,4c0,1 0,2 0,4c0,1 0,2 0,4c0,2 -0.48627,2.82375 -1,5c-0.4595,1.9465 -0.61731,3.07613 -1,4c-0.5412,1.30656 -2,3 -2,4c0,1 -1.77023,2.02675 -2,3c-0.51373,2.17625 -2,3 -3,4l0,1l-1,0l-1,2" id="svg_1" stroke-width="1.5" stroke="#000" fill="none"/>
  <path d="m172,202.45313c0,1 0,4 0,6c0,3 0,6 0,9c0,3 0,6 0,8c0,3 0,5 0,8c0,6 0,8 0,11c0,2 0,6 0,8c0,4 0,6 0,9c0,1 1.49345,3.87857 2,7c0.32036,1.97418 0.78986,4.07843 2,7c0.85571,2.06586 1.69255,5.186 3,7c1.65381,2.29453 2.95517,3.54916 4,7c0.28978,0.95709 1.33749,2.31 3,5c2.23048,3.60901 4.70546,4.34619 7,6c1.814,1.30746 4.70546,3.34619 7,5c3.62799,2.6149 8.35452,3.48593 10,5c3.96284,3.64633 9.64749,3.9725 14,5c1.9465,0.4595 2.71201,0.98163 8,2c1.96391,0.3782 7.02521,-0.11865 12,1c4.02266,0.90457 6.87856,1.49347 10,2c2.96127,0.48056 6.92578,1.49756 12,2c4.97568,0.49268 7.08026,-0.68927 10,0c4.35251,1.0275 5,2 8,2c3,0 7,0 9,0c3,0 6,0 8,0c4,0 6,0 10,0c3,0 8,0 13,0c4,0 6,0 10,0c4,0 7,0 9,0c2,0 4.87857,-0.49347 8,-1c4.93542,-0.8009 9.21454,1.44891 14,0c3.45084,-1.04483 5,-2 8,-2c2,0 5.96384,-1.11588 9,-2c3.95868,-1.15277 5.93414,-2.14429 8,-3c2.92157,-1.21014 6.12872,-2.13065 9,-3c3.45084,-1.04483 5.37201,-2.3851 9,-5c2.29453,-1.65381 7.06601,-3.87766 9,-5c3.11847,-1.80972 5.61383,-2.297 8,-5c1.47983,-1.67633 2.38687,-3.9176 5,-5c1.84775,-0.76538 3.06601,-1.87766 5,-3c3.11847,-1.80972 4,-3 6,-5c1,-1 3,-3 4,-4c2,-2 2.70547,-3.34619 5,-5c1.814,-1.30746 2,-2 3,-3c1,-1 1.23462,-2.15225 2,-4c0.5412,-1.30655 2.48627,-2.82376 3,-5c0.22977,-0.97324 1.4588,-3.69345 2,-5c0.38269,-0.92389 0.67963,-2.02582 1,-4c0.50653,-3.12144 2,-4 2,-6c0,-2 1,-4 1,-5c0,-2 2,-4 2,-5c0,-2 -0.4595,-3.0535 0,-5c0.51373,-2.17625 0.23462,-3.15224 1,-5c0.5412,-1.30656 1,-2 1,-3c0,-1 0,-2 0,-4c0,-1 0.5405,-3.0535 1,-5c0.51373,-2.17625 1,-4 1,-5c0,-2 0,-3 0,-4c0,-1 0,-2 0,-3c0,-1 -0.4588,-1.69344 -1,-3c-0.38269,-0.92387 0.38269,-2.07613 0,-3c-0.5412,-1.30656 -2.4588,-2.69344 -3,-4c-0.38269,-0.92387 0,-2 -1,-3c-1,-1 -2,-1 -2,-2c0,-1 -0.61731,-1.07613 -1,-2c-1.0824,-2.61313 -2,-3 -3,-4c-1,-1 -1.61731,-2.07613 -2,-3c-0.5412,-1.30656 -2.1731,-0.85274 -3,-2c-1.30746,-1.814 -1,-3 -2,-4l-1,-1" id="svg_3" stroke-width="1.5" stroke="#000" fill="none"/>
  <path d="m219,184.45313c1,0 3.0535,-0.4595 5,0c2.17625,0.51375 4.76108,1.41589 8,3c2.84073,1.38936 5.01291,1.83981 6,2c3.12144,0.50655 3.87856,1.49345 7,2c1.97418,0.32036 5.86829,1.28859 10,3c2.92157,1.21014 4,1 5,1c1,0 1,1 0,2c-1,1 -3.46259,-1.24985 -6,2c-0.61542,0.78821 -1.69344,1.4588 -3,2c-0.92387,0.38269 -1.41885,0.41885 -3,2c-1.58115,1.58115 -2.69344,1.4588 -4,2c-0.92387,0.38269 -2.82375,1.48625 -5,2c-0.97325,0.22975 -3,1 -4,1c-1,0 -2.4588,0.30656 -3,-1c-0.38269,-0.92387 -0.58578,-2.58578 -2,-4c-0.70711,-0.70711 -0.47427,-1.14935 -1,-2c-1.17557,-1.90211 -1.77025,-2.02675 -2,-3c-0.51375,-2.17625 -1,-3 -1,-6c0,-1 -1.29289,-1.29289 -2,-2c-0.70711,-0.70711 0,-3 -1,-4l0,-1l0,-1" id="svg_4" stroke-width="1.5" stroke="#000" fill="none"/>
  <path d="m343,191.45313c0,-1 1,-1 3,-3c1,-1 1.47427,-2.14935 2,-3c1.17557,-1.90211 2.29291,-1.29289 3,-2c1.41422,-1.41422 3.02676,-0.77025 4,-1c2.17624,-0.51375 2.07611,-1.61731 3,-2c1.30655,-0.5412 2.61731,-1.07613 3,-2c0.5412,-1.30656 1.82376,-1.48625 4,-2c0.97324,-0.22975 1,-1 3,-1c1,0 3,-1 3,0c0,2 0,3 0,5c0,1 0,3 0,4c0,2 -1,4 -1,5c0,1 0,3 0,6c0,1 0.38269,2.07613 0,3c-0.5412,1.30656 -1,2 -1,3c0,1 -1,2 -3,2c-1,0 -2.02676,0.22975 -3,0c-2.17624,-0.51375 -4,-2 -6,-2c-2,0 -4.29291,-1.29289 -5,-2c-0.70709,-0.70711 -2,-1 -3,-2c-2,-2 -2.69345,-2.4588 -4,-3c-0.92389,-0.38269 -1,-1 -2,-2l0,-1l-1,-1l-1,0" id="svg_5" stroke-width="1.5" stroke="#000" fill="none"/>
  <path d="m250,216.45313c-1,0 -2.07613,-0.38269 -3,0c-1.30656,0.5412 -2.29289,2.29289 -3,3c-0.70711,0.70711 -1,1 -1,2c0,1 0,2 0,3c0,1 0,2 0,3c0,1 0,2 0,3c0,2 0.09789,2.82443 2,4c0.85065,0.52573 3,1 4,1c1,0 2,1 3,1c1,0 2,0 3,0c1,0 2.69345,-0.4588 4,-1c1.84775,-0.76537 2.07611,-1.61731 3,-2c1.30655,-0.5412 1.69254,-1.186 3,-3c0.8269,-1.14726 2,-1 2,-2c0,-1 0,-3 0,-4c0,-2 0,-3 0,-5c0,-1 1.41422,-2.58578 0,-4c-0.70709,-0.70711 -1.4588,-0.69344 -2,-2c-0.38269,-0.92387 -1,-1 -2,-1c-2,0 -3,0 -4,0c-1,0 -2,0 -3,0c-1,0 -2,0 -3,0c-1,0 -2.07613,-0.38269 -3,0c-1.30656,0.5412 -2,1 -3,1l-1,1" id="svg_7" stroke-width="1.5" stroke="#000" fill="none"/>
  <path d="m345,209.45313c1,0 1.30655,2.4588 0,3c-0.92389,0.38269 -1.47427,1.14935 -2,2c-1.17557,1.90211 -3,2 -3,3c0,1 0,3 0,4c0,2 0,3 0,4c0,1 0,2 0,3c0,1 1.29291,1.29289 2,2c0.70709,0.70711 1,2 2,2c1,0 2,0 3,0c1,0 2,0 3,0c1,0 2,0 3,0c1,0 1.58578,-0.58578 3,-2c0.70709,-0.70711 0.29291,-2.29289 1,-3c0.70709,-0.70711 2,-1 2,-2c0,-1 0,-2 0,-3c0,-1 0,-2 0,-3c0,-1 0,-2 0,-3c0,-1 -0.61731,-2.07613 -1,-3c-0.5412,-1.30656 -2,-2 -3,-3c-1,-1 -2,-1 -3,-1c-1,0 -2,0 -3,0l-2,0l-1,0" id="svg_8" stroke-width="1.5" stroke="#000" fill="none"/>
  <path d="m301,258.45313c1,0 2,0 3,0c1,0 3,0 4,0c1,0 3,-1 4,-1c1,0 2,0 2,1c0,1 0,3 0,4c0,2 -1,3 -1,4c0,1 0.38269,2.07611 0,3c-0.5412,1.30655 -0.29291,2.29291 -1,3c-0.70709,0.70709 -2,0 -3,-1c-1,-1 -2.4588,-1.69345 -3,-3c-0.76538,-1.84775 -0.61731,-4.07611 -1,-5c-0.5412,-1.30655 -2,-2 -2,-3l0,-1l-1,0" id="svg_9" stroke-width="1.5" stroke="#000" fill="none"/>
  <path d="m288,286.45313c1,0 1.0979,0.82443 3,2c0.85065,0.52573 2,1 4,1c1,0 2,0 3,0c1,0 2,0 4,0c5,0 6.85272,-0.1731 8,-1c1.814,-1.30746 3,-3 4,-4c1,-1 1.4588,-1.69345 2,-3c0.38269,-0.92389 0,-2 0,-3c0,-2 0,-3 0,-4c0,-1 -0.82443,-1.0979 -2,-3c-0.52573,-0.85065 0.70709,-3.29291 0,-4c-0.70709,-0.70709 -1,1 -1,2c0,1 -0.4595,2.0535 0,4c0.51373,2.17624 0.77023,3.02676 1,4c0.51373,2.17624 1,4 3,6c1,1 0.69345,2.4588 2,3c0.92389,0.38269 3.87857,0.49347 7,1c0.98709,0.16019 2,0 3,0c2,0 4,-1 6,-2c2,-1 3,-1 4,-2c1,-1 2.186,-1.69254 4,-3c1.14728,-0.8269 1.4588,-1.69345 2,-3c0.38269,-0.92389 0,-3 1,-4l0,-2l0,-1" id="svg_10" stroke-width="1.5" stroke="#000" fill="none"/>
  <path d="m185,179.45313c-1,0 -1.61731,-1.07613 -2,-2c-0.5412,-1.30656 -1.4588,-2.69344 -2,-4c-0.76537,-1.84776 -0.49345,-2.87856 -1,-6c-0.16019,-0.98709 0,-2 0,-3c0,-2 -1,-2 -1,-4c0,-1 0,-2 0,-5c0,-2 0,-3 0,-5c0,-1 -0.90211,-2.82443 1,-4c0.85065,-0.52573 2.69344,-0.4588 4,-1c0.92387,-0.38269 2,0 4,0c1,0 2,0 3,0c1,0 2,0 3,0c1,0 2,0 3,0c1,0 1.29289,1.29289 2,2c0.70711,0.70711 1.4588,2.69344 2,4c0.38269,0.92387 1,4 1,5c0,1 2,2 2,3c0,1 0.29289,1.29289 1,2c0.70711,0.70711 0,2 0,3c0,1 0,2 0,3c0,1 -1.09789,1.82443 -3,3c-0.85065,0.52573 -2.07613,0.61731 -3,1c-1.30656,0.5412 -2.07613,0.61731 -3,1c-1.30656,0.5412 -2,1 -3,1c-1,0 -1,1 -2,1c-1,0 -1.69344,1.4588 -3,2c-0.92387,0.38269 -2,0 -2,1l-1,0" id="svg_11" stroke-width="1.5" stroke="#000" fill="none"/>
  <path d="m417,155.45313c-1,0 -2,0 -2,-1c0,-1 0,-3 0,-5c0,-2 0,-4 0,-5c0,-1 0,-2 0,-3c0,-1 0,-2 0,-3c0,-1 1,-3 1,-4c0,-1 0.29291,-1.29289 1,-2c0.70709,-0.70711 3,0 4,0c2,0 3,0 5,0c1,0 1.69345,1.4588 3,2c0.92389,0.38269 1.61731,1.07613 2,2c0.5412,1.30656 1.4588,1.69344 2,3c0.38269,0.92387 0.48627,1.82375 1,4c0.4595,1.9465 1,3 1,4c0,1 0,2 0,3c0,2 0,3 0,5c0,2 -1,3 -2,3c-1,0 -2.02676,0.22975 -3,0c-2.17624,-0.51375 -2.29291,-1.29289 -3,-2c-0.70709,-0.70711 -2.07611,0.38269 -3,0c-1.30655,-0.5412 -2.29291,-1.29289 -3,-2c-0.70709,-0.70711 -1,-1 -2,-1l-1,0l-1,-1l-1,0" id="svg_12" stroke-width="1.5" stroke="#000" fill="none"/>
  <path d="m410,242.45313c0,-1 0.85272,-2.1731 2,-3c3.62799,-2.6149 7,-2 12,-4c5,-2 7.80566,-3.44841 12,-5c7.73401,-2.86099 14.94672,-4.49873 22,-5c6.98239,-0.49622 18,0 25,0c7,0 15,0 22,0l4,0l2,0" id="svg_13" stroke-width="1.5" stroke="#000" fill="none"/>
  <path d="m423,257.45313c0,-3 1.05164,-3.35927 5,-4c3.12143,-0.50655 6,-1 12,-2c6,-1 13,-1 20,-1c6,0 9,0 15,0c3,0 4,0 9,0l2,0l2,0l1,0" id="svg_14" stroke-width="1.5" stroke="#000" fill="none"/>
  <path d="m417,276.45313c2,0 3,0 6,0c8,0 22,0 37,0c13,0 24,0 35,0c10,0 18,1 22,3l2,1" id="svg_15" stroke-width="1.5" stroke="#000" fill="none"/>
  <path d="m236,255.45313c-4,0 -6,0 -10,0c-9,0 -17,0 -26,0c-8,0 -19,0 -25,0c-1,0 -5,1 -9,1c-2,0 -4,2 -6,3l-3,1l-1,2l-1,0" id="svg_16" stroke-width="1.5" stroke="#000" fill="none"/>
  <path d="m235,281.45313c-1,1 -7,0 -17,0c-14,0 -32,0 -44,0c-9,0 -12,0 -14,0c-3,0 -6,1 -11,3l-9,2l-4,1l-1,0" id="svg_17" stroke-width="1.5" stroke="#000" fill="none"/>
  <path d="m227,240.45313c-1,0 -8,0 -14,0c-5,0 -12,0 -17,0c-8,0 -16.069,-0.58534 -27,1c-5.04622,0.73186 -10,2 -11,3l-1,1" id="svg_18" stroke-width="1.5" stroke="#000" fill="none"/>
 </g>
</svg>